<svg width="440" height="260" viewBox="0 0 440 260" xmlns="http://www.w3.org/2000/svg" shape-rendering="geometricPrecision">
  <!-- Pie chart: 5 equal segments -->
  <circle r="100" cx="220" cy="130" fill="#4F5D95" /> <!-- PHP -->
  <path d="M220,130 L220,30 A100,100 0 0,1 315.11,69.02 Z" fill="#f89820" /> <!-- Java -->
  <path d="M220,130 L315.11,69.02 A100,100 0 0,1 315.11,190.98 Z" fill="#3572A5" /> <!-- Python -->
  <path d="M220,130 L315.11,190.98 A100,100 0 0,1 220,230 Z" fill="#f7df1e" /> <!-- JavaScript -->
  <path d="M220,130 L220,230 A100,100 0 0,1 124.89,190.98 Z" fill="#00599C" /> <!-- C++ -->

  <!-- Leader lines and labels -->
  <!-- PHP (top) -->
  <line x1="220" y1="50" x2="220" y2="10" stroke="#4F5D95" stroke-width="2" />
  <text x="200" y="5" font-size="18" fill="#4F5D95" font-family="Arial" font-weight="bold">PHP</text>
  <!-- Java (top right) -->
  <line x1="285" y1="70" x2="340" y2="40" stroke="#f89820" stroke-width="2" />
  <text x="350" y="45" font-size="18" fill="#f89820" font-family="Arial" font-weight="bold">Java</text>
  <!-- Python (bottom right) -->
  <line x1="285" y1="190" x2="340" y2="230" stroke="#3572A5" stroke-width="2" />
  <text x="350" y="240" font-size="18" fill="#3572A5" font-family="Arial" font-weight="bold">Python</text>
  <!-- JavaScript (bottom) -->
  <line x1="220" y1="210" x2="220" y2="255" stroke="#f7df1e" stroke-width="2" />
  <text x="200" y="255" font-size="18" fill="#f7df1e" font-family="Arial" font-weight="bold">JavaScript</text>
  <!-- C++ (bottom left) -->
  <line x1="155" y1="190" x2="90" y2="230" stroke="#00599C" stroke-width="2" />
  <text x="30" y="240" font-size="18" fill="#00599C" font-family="Arial" font-weight="bold">C++</text>
</svg> 